<svg xmlns="http://www.w3.org/2000/svg" width="1024" height="500" viewBox="0 0 1024 500">
  <defs>
    <linearGradient id="bg" x1="0%" y1="0%" x2="100%" y2="100%">
      <stop offset="0%" stop-color="#0082C9"/>
      <stop offset="100%" stop-color="#00589C"/>
    </linearGradient>
  </defs>

  <!-- Background -->
  <rect width="1024" height="500" fill="url(#bg)"/>

  <!-- Decorative circles -->
  <circle cx="920" cy="80" r="120" fill="#ffffff" fill-opacity="0.05"/>
  <circle cx="80" cy="440" r="160" fill="#ffffff" fill-opacity="0.05"/>
  <circle cx="880" cy="430" r="60" fill="#ffffff" fill-opacity="0.05"/>

  <!-- Logo circle + icon -->
  <g transform="translate(120, 140)">
    <circle cx="110" cy="110" r="110" fill="#ffffff"/>
    <g transform="translate(30, 30) scale(6.25)">
      <path fill="#0082C9" d="M12,3L2,12H5V20H19V12H22L12,3M12,8.75A2.25,2.25 0 0,1 14.25,11A2.25,2.25 0 0,1 12,13.25A2.25,2.25 0 0,1 9.75,11A2.25,2.25 0 0,1 12,8.75M12,15C13.5,15 16.5,15.75 16.5,17.25V18H7.5V17.25C7.5,15.75 10.5,15 12,15Z"/>
    </g>
  </g>

  <!-- Text -->
  <g transform="translate(400, 180)">
    <text x="0" y="0" fill="#ffffff" font-family="-apple-system, BlinkMacSystemFont, 'Segoe UI', Roboto, 'Helvetica Neue', Arial, sans-serif" font-size="110" font-weight="800" letter-spacing="-2">Pantry</text>
    <text x="4" y="60" fill="#ffffff" fill-opacity="0.85" font-family="-apple-system, BlinkMacSystemFont, 'Segoe UI', Roboto, 'Helvetica Neue', Arial, sans-serif" font-size="32" font-weight="400">Household companion for Nextcloud</text>
    <text x="4" y="130" fill="#ffffff" fill-opacity="0.7" font-family="-apple-system, BlinkMacSystemFont, 'Segoe UI', Roboto, 'Helvetica Neue', Arial, sans-serif" font-size="24" font-weight="500">Checklists &#8226; Photo Board &#8226; Notes Wall</text>
  </g>
</svg>
